RBDS028runT25_grf
version=1
nRows=27
nColumns=19
inDegrees=no
endheader
time	ground_force_r_vx	ground_force_r_vy	ground_force_r_vz	ground_force_r_px	ground_force_r_py	ground_force_r_pz	ground_force_r_mx	ground_force_r_my	ground_force_r_mz	ground_force_l_vx	ground_force_l_vy	ground_force_l_vz	ground_force_l_px	ground_force_l_py	ground_force_l_pz	ground_force_l_mx	ground_force_l_my	ground_force_l_mz
     14.99900000	    -38.69663013	    315.78342652	     11.72247109	      2.28349673	      0.00000000	      1.09323626	     -0.00000000	      2.53415941	      0.00000000	      0.00000000	      0.00000000	      0.00000000	      0.00000000	      0.00000000	      0.00000000	      0.00000000	      0.00000000	      0.00000000
     15.00000000	    -38.80514665	    331.97111776	     12.37801362	      2.28166885	      0.00000000	      1.09262893	     -0.00000000	      2.47091435	      0.00000000	      0.00000000	      0.00000000	      0.00000000	      0.00000000	      0.00000000	      0.00000000	      0.00000000	      0.00000000	      0.00000000
     15.00100000	    -39.14852069	    347.62264184	     13.02328906	      2.27985492	      0.00000000	      1.09203063	     -0.00000000	      2.41834975	      0.00000000	      0.00000000	      0.00000000	      0.00000000	      0.00000000	      0.00000000	      0.00000000	      0.00000000	      0.00000000	      0.00000000
     15.00200000	    -39.49189472	    363.27416592	     13.66856450	      2.27804100	      0.00000000	      1.09143234	     -0.00000000	      2.36578515	      0.00000000	      0.00000000	      0.00000000	      0.00000000	      0.00000000	      0.00000000	      0.00000000	      0.00000000	      0.00000000	      0.00000000
     15.00300000	    -39.83526875	    378.92569000	     14.31383995	      2.27622707	      0.00000000	      1.09083404	     -0.00000000	      2.31322056	      0.00000000	      0.00000000	      0.00000000	      0.00000000	      0.00000000	      0.00000000	      0.00000000	      0.00000000	      0.00000000	      0.00000000
     15.00400000	    -40.35002973	    394.17182298	     14.93910756	      2.27442341	      0.00000000	      1.09024484	     -0.00000000	      2.26909614	      0.00000000	      0.00000000	      0.00000000	      0.00000000	      0.00000000	      0.00000000	      0.00000000	      0.00000000	      0.00000000	      0.00000000
     15.00500000	    -40.95048417	    409.21526041	     15.55437127	      2.27262488	      0.00000000	      1.08966019	     -0.00000000	      2.22919180	      0.00000000	      0.00000000	      0.00000000	      0.00000000	      0.00000000	      0.00000000	      0.00000000	      0.00000000	      0.00000000	      0.00000000
     15.00600000	    -41.55093861	    424.25869784	     16.16963497	      2.27082636	      0.00000000	      1.08907554	     -0.00000000	      2.18928747	      0.00000000	      0.00000000	      0.00000000	      0.00000000	      0.00000000	      0.00000000	      0.00000000	      0.00000000	      0.00000000	      0.00000000
     15.00700000	    -42.24070776	    439.08005569	     16.76620109	      2.26903347	      0.00000000	      1.08849729	     -0.00000000	      2.15389095	      0.00000000	      0.00000000	      0.00000000	      0.00000000	      0.00000000	      0.00000000	      0.00000000	      0.00000000	      0.00000000	      0.00000000
     15.00800000	    -43.10910634	    453.45725441	     17.32537207	      2.26725185	      0.00000000	      1.08793188	     -0.00000000	      2.12751005	      0.00000000	      0.00000000	      0.00000000	      0.00000000	      0.00000000	      0.00000000	      0.00000000	      0.00000000	      0.00000000	      0.00000000
     15.00900000	    -43.97750492	    467.83445313	     17.88454304	      2.26547023	      0.00000000	      1.08736646	     -0.00000000	      2.10112914	      0.00000000	      0.00000000	      0.00000000	      0.00000000	      0.00000000	      0.00000000	      0.00000000	      0.00000000	      0.00000000	      0.00000000
     15.01000000	    -44.84590349	    482.21165185	     18.44371401	      2.26368861	      0.00000000	      1.08680105	     -0.00000000	      2.07474824	      0.00000000	      0.00000000	      0.00000000	      0.00000000	      0.00000000	      0.00000000	      0.00000000	      0.00000000	      0.00000000	      0.00000000
     15.01100000	    -45.98128663	    495.87967991	     18.91597156	      2.26192538	      0.00000000	      1.08626122	     -0.00000000	      2.06170783	      0.00000000	      0.00000000	      0.00000000	      0.00000000	      0.00000000	      0.00000000	      0.00000000	      0.00000000	      0.00000000	      0.00000000
     15.01200000	    -47.11666977	    509.54770796	     19.38822912	      2.26016215	      0.00000000	      1.08572139	     -0.00000000	      2.04866741	      0.00000000	      0.00000000	      0.00000000	      0.00000000	      0.00000000	      0.00000000	      0.00000000	      0.00000000	      0.00000000	      0.00000000
     15.01300000	    -48.25205290	    523.21573602	     19.86048667	      2.25839892	      0.00000000	      1.08518156	     -0.00000000	      2.03562700	      0.00000000	      0.00000000	      0.00000000	      0.00000000	      0.00000000	      0.00000000	      0.00000000	      0.00000000	      0.00000000	      0.00000000
     15.01400000	    -49.55698037	    536.39332686	     20.25251095	      2.25664886	      0.00000000	      1.08466330	     -0.00000000	      2.03075265	      0.00000000	      0.00000000	      0.00000000	      0.00000000	      0.00000000	      0.00000000	      0.00000000	      0.00000000	      0.00000000	      0.00000000
     15.01500000	    -50.94668000	    549.32569908	     20.60441859	      2.25490539	      0.00000000	      1.08415582	     -0.00000000	      2.02996132	      0.00000000	      0.00000000	      0.00000000	      0.00000000	      0.00000000	      0.00000000	      0.00000000	      0.00000000	      0.00000000	      0.00000000
     15.01600000	    -52.33637963	    562.25807130	     20.95632624	      2.25316192	      0.00000000	      1.08364834	     -0.00000000	      2.02917000	      0.00000000	      0.00000000	      0.00000000	      0.00000000	      0.00000000	      0.00000000	      0.00000000	      0.00000000	      0.00000000	      0.00000000
     15.01700000	    -53.80294895	    574.94214889	     21.25691923	      2.25142540	      0.00000000	      1.08315392	     -0.00000000	      2.03185833	      0.00000000	      0.00000000	      0.00000000	      0.00000000	      0.00000000	      0.00000000	      0.00000000	      0.00000000	      0.00000000	      0.00000000
     15.01800000	    -55.42325763	    587.12963722	     21.45488291	      2.24970278	      0.00000000	      1.08268559	     -0.00000000	      2.04150595	      0.00000000	      0.00000000	      0.00000000	      0.00000000	      0.00000000	      0.00000000	      0.00000000	      0.00000000	      0.00000000	      0.00000000
     15.01900000	    -57.04356632	    599.31712555	     21.65284659	      2.24798016	      0.00000000	      1.08221727	     -0.00000000	      2.05115358	      0.00000000	      0.00000000	      0.00000000	      0.00000000	      0.00000000	      0.00000000	      0.00000000	      0.00000000	      0.00000000	      0.00000000
     15.02000000	    -58.66387500	    611.50461388	     21.85081027	      2.24625754	      0.00000000	      1.08174895	     -0.00000000	      2.06080121	      0.00000000	      0.00000000	      0.00000000	      0.00000000	      0.00000000	      0.00000000	      0.00000000	      0.00000000	      0.00000000	      0.00000000
     15.02100000	    -60.48120125	    622.95546099	     21.86364343	      2.24455644	      0.00000000	      1.08132622	     -0.00000000	      2.07858215	      0.00000000	      0.00000000	      0.00000000	      0.00000000	      0.00000000	      0.00000000	      0.00000000	      0.00000000	      0.00000000	      0.00000000
     15.02200000	    -62.29852749	    634.40630810	     21.87647659	      2.24285535	      0.00000000	      1.08090349	     -0.00000000	      2.09636309	      0.00000000	      0.00000000	      0.00000000	      0.00000000	      0.00000000	      0.00000000	      0.00000000	      0.00000000	      0.00000000	      0.00000000
     15.02300000	    -64.11585374	    645.85715520	     21.88930975	      2.24115425	      0.00000000	      1.08048076	     -0.00000000	      2.11414404	      0.00000000	      0.00000000	      0.00000000	      0.00000000	      0.00000000	      0.00000000	      0.00000000	      0.00000000	      0.00000000	      0.00000000
     15.02400000	    -66.03656779	    656.83370411	     21.76116105	      2.23946756	      0.00000000	      1.08009222	     -0.00000000	      2.13563715	      0.00000000	      0.00000000	      0.00000000	      0.00000000	      0.00000000	      0.00000000	      0.00000000	      0.00000000	      0.00000000	      0.00000000
     15.02500000	    -68.00897574	    667.57310393	     21.56252142	      2.23778808	      0.00000000	      1.07972077	     -0.00000000	      2.15898634	      0.00000000	      0.00000000	      0.00000000	      0.00000000	      0.00000000	      0.00000000	      0.00000000	      0.00000000	      0.00000000	      0.00000000
